<svg xmlns="http://www.w3.org/2000/svg" viewBox="0 0 512 512" width="512" height="512">
  <defs>
    <filter id="g" x="-50%" y="-50%" width="200%" height="200%">
      <feGaussianBlur stdDeviation="10" result="b"/>
      <feMerge><feMergeNode in="b"/><feMergeNode in="SourceGraphic"/></feMerge>
    </filter>
    <pattern id="s" width="4" height="4" patternUnits="userSpaceOnUse">
      <rect y="3" width="4" height="1" fill="#000" fill-opacity=".35"/>
    </pattern>
    <filter id="nz">
      <feTurbulence type="fractalNoise" baseFrequency=".9" numOctaves="2"/>
      <feColorMatrix values="0 0 0 0 .35  0 0 0 0 .3  0 0 0 0 .2  0 0 0 .25 0"/>
    </filter>
  </defs>
  <rect width="512" height="512" fill="#D9CDB4"/>
  <rect width="512" height="512" filter="url(#nz)"/>
  <rect width="512" height="10" fill="#E8DFCB"/>
  <rect x="56" y="56" width="400" height="330" rx="34" fill="#BFB193"/>
  <rect x="72" y="70" width="368" height="302" rx="26" fill="#030703"/>
  <g fill="#39FF6A" filter="url(#g)"><rect x="186" y="141" width="20" height="20"/><rect x="306" y="141" width="20" height="20"/><rect x="206" y="161" width="20" height="20"/><rect x="286" y="161" width="20" height="20"/><rect x="186" y="181" width="20" height="20"/><rect x="206" y="181" width="20" height="20"/><rect x="226" y="181" width="20" height="20"/><rect x="246" y="181" width="20" height="20"/><rect x="266" y="181" width="20" height="20"/><rect x="286" y="181" width="20" height="20"/><rect x="306" y="181" width="20" height="20"/><rect x="166" y="201" width="20" height="20"/><rect x="186" y="201" width="20" height="20"/><rect x="226" y="201" width="20" height="20"/><rect x="246" y="201" width="20" height="20"/><rect x="266" y="201" width="20" height="20"/><rect x="306" y="201" width="20" height="20"/><rect x="326" y="201" width="20" height="20"/><rect x="146" y="221" width="20" height="20"/><rect x="166" y="221" width="20" height="20"/><rect x="186" y="221" width="20" height="20"/><rect x="206" y="221" width="20" height="20"/><rect x="226" y="221" width="20" height="20"/><rect x="246" y="221" width="20" height="20"/><rect x="266" y="221" width="20" height="20"/><rect x="286" y="221" width="20" height="20"/><rect x="306" y="221" width="20" height="20"/><rect x="326" y="221" width="20" height="20"/><rect x="346" y="221" width="20" height="20"/><rect x="146" y="241" width="20" height="20"/><rect x="186" y="241" width="20" height="20"/><rect x="206" y="241" width="20" height="20"/><rect x="226" y="241" width="20" height="20"/><rect x="246" y="241" width="20" height="20"/><rect x="266" y="241" width="20" height="20"/><rect x="286" y="241" width="20" height="20"/><rect x="306" y="241" width="20" height="20"/><rect x="346" y="241" width="20" height="20"/><rect x="146" y="261" width="20" height="20"/><rect x="186" y="261" width="20" height="20"/><rect x="306" y="261" width="20" height="20"/><rect x="346" y="261" width="20" height="20"/><rect x="206" y="281" width="20" height="20"/><rect x="226" y="281" width="20" height="20"/><rect x="266" y="281" width="20" height="20"/><rect x="286" y="281" width="20" height="20"/><rect x="248" y="318" width="16" height="36" fill="#FFB13B"/></g>
  <rect x="72" y="70" width="368" height="302" rx="26" fill="url(#s)"/>
  <rect x="96" y="420" width="120" height="10" rx="3" fill="#9C8E70"/>
  <circle cx="400" cy="425" r="9" fill="#39FF6A"/>
</svg>